PathFileType	4	(X/Y/Z)	c:/Users/goper/Files/vsCode/490R/osim_files/A03/A03_Slow_02.trc
DataRate	CameraRate	NumFrames	NumMarkers	Units                	OrigDataRate	OrigDataStartFrame	OrigNumFrames
250.00	250.00	10	36	mm	250.0	1858	2972
                Frame#	Time	LPSIS			LASIS			LTH1			LTH2			LTH3			LTH4			LLFE			LMFE			LSH1			LSH2			LSH3			LSH4			LLMAL			LMMAL			LCAL			LMTP5			LTOE			LMTP1			RPSIS			RASIS			RTH1			RTH2			RTH3			RTH4			RLFE			RMFE			RSH1			RSH2			RSH3			RSH4			RLMAL			RMMAL			RCAL			RMTP1			RTOE			RMTP5		
		X1	Y1	Z1	X2	Y2	Z2	X3	Y3	Z3	X4	Y4	Z4	X5	Y5	Z5	X6	Y6	Z6	X7	Y7	Z7	X8	Y8	Z8	X9	Y9	Z9	X10	Y10	Z10	X11	Y11	Z11	X12	Y12	Z12	X13	Y13	Z13	X14	Y14	Z14	X15	Y15	Z15	X16	Y16	Z16	X17	Y17	Z17	X18	Y18	Z18	X19	Y19	Z19	X20	Y20	Z20	X21	Y21	Z21	X22	Y22	Z22	X23	Y23	Z23	X24	Y24	Z24	X25	Y25	Z25	X26	Y26	Z26	X27	Y27	Z27	X28	Y28	Z28	X29	Y29	Z29	X30	Y30	Z30	X31	Y31	Z31	X32	Y32	Z32	X33	Y33	Z33	X34	Y34	Z34	X35	Y35	Z35	X36	Y36	Z36

1858	7.42800	-755.81384	1075.89978	234.79143	-991.80035	1006.80853	373.59375	-1083.46057	675.93286	431.14676	-1106.50732	639.43201	431.44510	-1137.84766	699.11682	407.41617	-1149.47449	656.12341	409.04599	-1107.02966	584.89478	422.70389	-1128.93469	576.13446	268.91153	-1052.29333	507.07053	421.71030	-1046.94971	459.01950	419.44937	-1113.26331	490.58716	416.15622	-1096.45618	446.76587	410.58429	-994.90625	135.91479	384.94955	-1007.60175	139.91058	287.97195	-924.02509	132.84912	331.80115	-1133.46277	54.46338	396.17099	-1165.75549	80.32389	328.00067	-1133.22314	64.15913	283.43915	-762.23755	1084.75525	151.47141	-1009.54285	984.80920	76.65138	-902.85193	617.43274	53.50288	-905.85199	572.78674	63.61997	-963.87866	615.64642	65.21890	-958.64526	572.39459	73.70561	-924.91907	540.34082	82.64088	-952.69629	550.66278	204.67468	-865.19891	476.85516	80.75720	-860.64313	435.74518	70.44737	-926.94238	463.90643	80.02548	-912.65881	419.83563	71.11353	-842.11725	123.97787	124.84463	0.00000	0.00000	0.00000	-788.42950	85.32768	185.73367	-1006.63953	49.02721	205.65935	-1029.75879	71.28114	157.00777	-990.54688	44.70142	89.84077
1859	7.43200	-758.97644	1076.00269	234.82228	-994.87891	1006.68439	373.81433	-1086.54846	675.72198	430.39304	-1109.71985	639.29498	430.37863	-1140.56946	699.14459	406.48697	-1152.47571	656.26556	408.00320	-1110.28442	585.06818	421.58075	-1132.25806	576.43866	267.73193	-1057.38098	505.96765	420.76221	-1053.16833	457.80396	418.61490	-1118.83813	490.66864	415.26624	-1102.93042	446.64285	409.80853	-1008.94965	133.43233	384.96442	-1022.24915	137.44370	287.83066	-938.73981	128.53448	331.70587	-1149.67896	55.43153	396.85019	-1181.11377	81.78585	328.37305	-1149.15527	65.04889	283.54495	-765.44452	1085.00732	151.50203	-1012.32166	984.67194	76.34047	-903.62317	617.64471	53.53054	-906.92633	572.81873	63.72479	-965.12799	615.38116	65.33752	-959.71509	572.16681	73.83926	-925.79449	540.25165	82.73383	-953.63727	550.44647	204.79984	-865.85809	476.92142	80.89394	-861.15155	435.84271	70.55965	-927.50592	463.82220	80.09857	-913.14679	419.77347	71.17891	-842.01801	123.91824	124.81038	0.00000	0.00000	0.00000	-788.38824	85.23022	185.70786	-1006.55908	49.09979	205.63887	-1029.65015	71.36942	156.99869	-990.50104	44.70636	89.84317
1860	7.43600	-762.15948	1076.07654	234.81920	-997.87244	1006.48499	373.97348	-1089.44019	675.39496	429.61987	-1112.88501	639.11963	429.43039	-1143.35547	699.24524	405.76788	-1155.39026	656.34680	407.07489	-1113.40027	585.14832	420.46820	-1135.92358	576.23236	266.71313	-1062.36011	504.82651	419.79272	-1059.27637	456.57535	417.74521	-1124.37341	490.75323	414.37827	-1109.40039	446.55289	409.07147	-1022.03253	130.74675	386.62274	-1036.25134	135.60008	287.15073	-952.98804	124.37835	331.69000	-1165.67480	56.75725	397.34131	-1196.46143	83.46032	328.77490	-1164.88220	65.83046	283.86679	-768.75604	1085.21729	151.48978	-1015.54608	984.52209	76.75184	-905.38190	617.45630	53.72533	-907.96893	572.85181	63.80566	-966.40131	615.14758	65.39803	-960.76416	571.92377	73.89337	-926.70642	540.15820	82.83783	-954.54114	550.20709	204.90852	-866.49182	476.98468	81.02996	-861.56329	435.96899	70.68427	-928.09906	463.70364	80.15315	-913.58551	419.71057	71.24051	-841.87793	123.86514	124.75051	0.00000	0.00000	0.00000	-788.30865	85.14740	185.68607	-1006.44147	49.12136	205.64783	-1029.51013	71.44658	156.98328	-990.44543	44.71088	89.85089
1861	7.44000	-765.32153	1076.11926	234.82634	-1000.91205	1006.27820	374.19269	-1092.40234	674.99554	428.94702	-1115.96240	638.80914	428.44302	-1146.05859	699.24200	405.06424	-1158.27429	656.35059	406.17566	-1116.42456	585.18781	419.39456	-1139.40796	576.42090	265.72763	-1067.24133	503.70438	418.87726	-1065.35413	455.32028	416.89142	-1129.01648	492.36115	413.50958	-1115.71509	446.50977	408.34076	-1036.88538	129.35341	385.11057	-1049.63379	133.49110	287.22232	-967.22803	120.47136	331.47412	-1181.25745	58.14707	397.73840	-1211.68433	85.45819	329.21344	-1180.56274	66.94553	284.21875	-772.02972	1085.40674	151.50194	-1018.70044	984.27368	77.12767	-906.59698	617.48584	53.81597	-908.90875	572.72229	63.63444	-967.67224	614.84552	65.44682	-961.85620	571.67865	73.95067	-927.60944	540.08264	82.87497	-955.52032	549.92194	204.93344	-867.16003	477.04935	81.14791	-862.07025	436.04742	70.76331	-928.70679	463.61197	80.19244	-914.06335	419.65591	71.27329	-841.74127	123.83871	124.70615	0.00000	0.00000	0.00000	-788.22931	85.04865	185.63118	-1006.36414	49.27782	205.71512	-1029.31250	71.57484	156.95355	-990.39124	44.74961	89.81918
1862	7.44400	-768.52203	1076.18530	234.78751	-1003.95270	1006.00232	374.39383	-1095.12622	674.52521	428.23206	-1118.94617	638.46680	427.49167	-1148.63367	699.19495	404.38458	-1161.03625	656.23438	405.26630	-1119.29468	585.18439	418.33597	-1142.83496	576.59741	264.70776	-1072.03552	502.51996	417.91943	-1071.36487	454.12100	416.00510	-1133.97339	492.59653	412.60742	-1121.88794	446.47482	407.58530	-1050.78931	127.48815	385.01663	-1063.68884	131.81627	287.03235	-982.01080	116.76688	330.83124	-1196.75720	59.77803	398.05991	-1226.60339	87.62008	329.48639	-1196.12891	68.32784	284.38724	-775.29993	1085.62817	151.46138	-1021.86530	984.00330	77.26391	-907.96130	617.47394	53.90686	-909.95319	572.72626	63.65728	-968.97412	614.61420	65.45799	-962.89099	571.43451	73.98470	-928.49982	539.97260	82.91177	-956.51465	549.65912	204.92215	-867.77448	477.12918	81.25378	-862.64758	436.13440	70.84470	-929.33240	463.51962	80.21720	-914.52332	419.62317	71.25646	-841.59906	123.79933	124.59612	0.00000	0.00000	0.00000	-788.14233	84.99419	185.55998	-1006.17346	49.29910	205.60971	-1029.19299	71.68725	156.92424	-990.30634	44.76955	89.77552
1863	7.44800	-771.70953	1076.20593	234.76160	-1006.91174	1005.66187	374.54095	-1097.84448	673.96332	427.60794	-1121.89026	638.03809	426.54858	-1151.18127	699.06982	403.73895	-1163.77393	656.15381	404.38092	-1122.13562	585.10254	417.28259	-1146.14587	576.69299	263.71457	-1076.86633	501.35773	416.97754	-1077.31494	452.91379	415.15585	-1139.03381	492.82959	411.78256	-1128.08179	446.43323	406.85226	-1064.50745	125.80978	384.85202	-1077.60864	130.24168	286.71149	-996.03168	113.32473	330.67401	-1212.17664	61.65712	398.38907	-1239.47241	88.95335	329.59152	-1210.51050	68.92131	284.56653	-778.52795	1085.83960	151.47714	-1024.89258	983.69678	77.35646	-909.19281	617.49677	53.96039	-911.05182	572.72852	63.68948	-970.24200	614.32520	65.44843	-964.04016	571.21820	73.96331	-929.74133	539.85718	83.07578	-957.72833	549.45221	204.91985	-868.50586	477.23288	81.32005	-863.21075	436.23526	70.90961	-929.91693	463.39651	80.19205	-914.65051	419.42325	70.89264	-841.39032	123.74413	124.47689	0.00000	0.00000	0.00000	-788.05670	84.94447	185.48463	-1006.07910	49.39737	205.54791	-1029.02100	71.84193	156.88213	-990.27289	44.79925	89.80201
1864	7.45200	-774.94427	1076.20728	234.72812	-1009.89172	1005.27295	374.71567	-1101.29980	673.82831	426.88156	-1124.74780	637.58215	425.71759	-1153.66272	698.92413	403.12143	-1168.16748	657.53094	404.24152	-1124.89746	584.91290	416.28943	-1149.41272	576.75452	262.82175	-1081.51770	500.16437	416.05261	-1083.16858	451.72021	414.32092	-1143.97253	493.10846	411.00763	-1134.14099	446.46115	406.16278	-1078.20996	124.28613	384.45959	-1091.58521	128.91577	286.45526	-1010.18152	110.13706	330.39505	-1227.18860	63.55263	398.58600	-1257.22815	93.22597	330.66995	-1224.64722	69.56991	284.41843	-781.85931	1086.01782	151.51122	-1028.00171	983.33215	77.48486	-910.55420	617.48792	54.03646	-912.39294	572.85449	63.95044	-971.57074	614.02271	65.40736	-965.17334	570.96863	73.91626	-930.44421	539.72485	82.90314	-958.90002	549.19080	204.84982	-869.29370	477.30240	81.38388	-863.71185	436.34543	70.96101	-930.56311	463.26968	80.13807	-915.40173	419.44470	71.13452	-841.18927	123.72338	124.34358	0.00000	0.00000	0.00000	-787.98749	84.88265	185.43181	-1005.96228	49.54392	205.49414	-1028.89404	71.99874	156.82945	-990.16144	44.84502	89.76530
1865	7.45600	-778.15247	1076.22217	234.70889	-1012.98712	1004.84290	374.92969	-1103.86414	673.18689	426.30853	-1127.61707	637.06750	424.83124	-1156.08057	698.68317	402.55566	-1170.86597	657.41492	403.39737	-1127.56140	584.69348	415.26706	-1152.58789	576.79730	261.94226	-1086.14917	498.96094	415.12433	-1088.93750	450.56836	413.42087	-1148.77148	493.37555	410.20850	-1140.42834	446.60504	405.76779	-1091.84119	123.05981	384.18164	-1105.28027	127.75749	285.97537	-1024.32776	107.16764	329.93961	-1242.24133	65.90155	398.83337	-1271.45276	96.05537	330.91083	-1242.24207	73.96201	284.46115	-785.06451	1086.22351	151.48007	-1030.99280	982.98083	77.61386	-911.88660	617.49780	54.03642	-913.58398	572.81531	63.96348	-972.87927	613.73865	65.33683	-966.31641	570.70093	73.81897	-931.49622	539.57007	82.85159	-960.24341	548.91754	204.68513	-870.02612	477.38159	81.43557	-864.25702	436.46558	71.00715	-931.27069	463.11066	80.05817	-915.93634	419.35123	71.07976	-840.99396	123.66561	124.19211	0.00000	0.00000	0.00000	-787.87329	84.84258	185.31395	-1005.82556	49.68556	205.46277	-1028.71655	72.26421	156.70799	-990.13275	44.86131	89.75058
1866	7.46000	-781.39539	1076.18481	234.71515	-1016.12964	1004.40393	375.18494	-1106.04321	672.48602	425.75201	-1130.37280	636.48145	424.02713	-1158.41101	698.40094	402.03677	-1173.39966	657.21490	402.61456	-1130.12000	584.40607	414.31088	-1155.82996	576.85309	261.05460	-1090.69690	497.74561	414.20169	-1094.62439	449.42822	412.53662	-1153.42407	493.55405	409.40552	-1146.10889	446.65732	404.94159	-1105.37195	122.02354	383.85034	-1118.66174	126.84112	285.65436	-1038.35071	104.43870	329.41681	-1256.95923	68.45654	399.00342	-1285.73352	99.01538	331.20758	-1257.87231	75.79509	285.12158	-788.37109	1086.33521	151.52728	-1034.19043	982.15820	77.55570	-913.25415	617.46606	54.04712	-914.75409	572.78552	63.92869	-974.28937	613.45355	65.24232	-967.57684	570.44067	73.72489	-932.52228	539.46368	82.78640	-961.63922	548.60077	204.53284	-870.81366	477.45419	81.45625	-864.93127	436.57309	71.00887	-932.00079	462.92966	79.97667	-916.45557	419.26184	70.92318	-840.78241	123.62845	124.05488	0.00000	0.00000	0.00000	-787.78210	84.79208	185.22165	-1005.70654	49.86687	205.40027	-1028.49707	72.47771	156.64134	-990.00720	44.88493	89.70752
1867	7.46400	-784.66003	1076.11584	234.74164	-1019.13995	1003.86548	375.35287	-1108.56311	671.67285	425.35333	-1133.07104	635.83392	423.24011	-1160.73560	698.03955	401.54559	-1175.95679	656.98871	401.87302	-1132.75146	584.04651	413.37616	-1158.90479	576.86218	260.19824	-1095.22388	496.50143	413.28711	-1100.27051	448.25800	411.69363	-1158.04114	493.75357	408.64362	-1151.87061	446.68796	404.21295	-1118.74292	121.20152	383.48834	-1132.26611	126.12327	285.26123	-1052.36133	101.93991	328.85580	-1271.50293	71.15368	399.17746	-1299.75317	102.29175	331.40192	-1272.59778	78.41389	285.23254	-791.67682	1086.46326	151.58168	-1037.19983	982.22345	77.76814	-914.73651	617.40576	54.04958	-916.04010	572.74060	63.89381	-975.70514	613.14478	65.11819	-968.79620	570.15491	73.55794	-933.22339	539.03320	82.26320	-963.03827	548.28571	204.32916	-871.72620	477.51001	81.44640	-865.61914	436.63031	71.01829	-932.76495	462.74414	79.82800	-917.02863	419.14841	70.75081	-840.61194	123.55099	123.89613	0.00000	0.00000	0.00000	-787.73572	84.71069	185.10783	-1005.62079	50.01341	205.32472	-1028.25037	72.70865	156.57983	-989.88702	44.93534	89.65750
